<svg width="83" height="89" viewBox="0 0 83 89" fill="none" xmlns="http://www.w3.org/2000/svg">
<path d="M68.1432 77.3496C73.6611 73.7439 75.2855 67.1574 72.1098 60.2266C67.837 50.8998 63.2436 41.2193 57.6339 29.6565C54.1977 22.5764 51.8722 18.067 49.264 13.6096C46.4695 8.83304 40.9246 7.47426 36.4475 10.3403C34.6522 11.4895 33.2841 13.2898 31.7546 16.3652C30.823 18.237 30.0599 19.7669 28.4055 23.0809C22.5871 34.7364 20.0325 39.8989 16.9165 46.3648C16.7684 46.6721 16.7684 46.6721 16.6205 46.9791C12.9033 54.6929 11.2081 58.4685 9.58113 62.9892C7.39637 69.0583 10.2517 75.5719 16.2861 78.3325C21.1901 80.5758 25.9281 79.8274 31.1721 76.2153C31.8624 75.7401 32.5738 75.1968 33.375 74.5379C34.2712 73.8009 37.9889 70.539 38.9811 69.7065L42.0965 67.0926L44.9626 69.9778C45.0191 70.0347 45.1323 70.1479 45.2949 70.3091C45.5694 70.5814 45.879 70.8857 46.2162 71.2137C47.1783 72.1496 48.1656 73.0847 49.1167 73.9514C49.3761 74.1878 49.6295 74.416 49.8761 74.6353C51.2955 75.897 52.441 76.8114 53.0237 77.1574C58.4384 80.3746 63.3398 80.487 68.1432 77.3496ZM38.9943 81.3711C38.0112 82.1796 37.1048 82.8717 36.1899 83.5017C28.5481 88.7653 20.5778 90.0244 12.6058 86.3776C2.4399 81.727 -2.50562 70.4451 1.25697 59.9931C3.02007 55.0941 4.80352 51.122 8.65059 43.1386C8.7988 42.831 8.7988 42.831 8.94676 42.524C12.0865 36.0089 14.6533 30.8218 20.4491 19.2114C22.1428 15.8186 22.9049 14.2908 23.8339 12.4244C26.0113 8.04613 28.2748 5.06765 31.6777 2.88929C40.4016 -2.69536 51.5768 0.0431179 56.9 9.14192C59.651 13.8434 62.0645 18.5233 65.5933 25.7943C71.2295 37.4118 75.8495 47.1483 80.1528 56.5416C85.0936 67.3247 82.2956 78.6699 72.9819 84.7561C65.2164 89.8282 56.7006 89.6329 48.5061 84.7639C47.2988 84.0472 45.8196 82.8664 43.9982 81.2473C43.7237 81.0032 43.4433 80.7507 43.1578 80.4905C42.6593 80.0362 42.1549 79.5677 41.6507 79.092C40.5511 80.0458 39.4758 80.9751 38.9943 81.3711ZM45.4669 73.2884L41.7198 78.7269L38.117 73.1918C31.8772 63.6053 29.4157 58.5026 29.0381 51.5203C28.7401 46.0039 30.7149 41.5116 35.3406 39.0454C40.1555 36.4786 45.2581 36.9716 49.4262 40.5334C53.5746 44.0771 54.3915 48.7915 53.2718 54.7113C52.0408 61.2157 49.3088 67.7125 45.4669 73.2884ZM44.5791 53.0667C45.1713 49.9355 44.8863 48.2906 43.6793 47.2596C42.3107 46.0901 41.1438 45.9773 39.5025 46.8523C38.2578 47.5159 37.7447 48.6831 37.8721 51.0429C38.0601 54.5191 39.1282 57.6239 41.6707 62.1094C43.0106 59.1817 44.0024 56.1135 44.5791 53.0667Z" fill="#FD5A5A"/>
</svg>
